<svg width="2933" height="1956" xmlns="http://www.w3.org/2000/svg" xmlns:xlink="http://www.w3.org/1999/xlink" xml:space="preserve" overflow="hidden"><defs><clipPath id="clip0"><rect x="709" y="367" width="2933" height="1956"/></clipPath><clipPath id="clip1"><rect x="708" y="367" width="2934" height="1956"/></clipPath><linearGradient x1="1024.5" y1="1733" x2="1024.5" y2="2043" gradientUnits="userSpaceOnUse" spreadMethod="reflect" id="fill2"><stop offset="0" stop-color="#71A6DB"/><stop offset="0.5" stop-color="#559BDB"/><stop offset="1" stop-color="#438AC9"/></linearGradient><clipPath id="clip3"><rect x="923" y="613" width="2719" height="1433"/></clipPath><linearGradient x1="1477.5" y1="613" x2="1477.5" y2="2043" gradientUnits="userSpaceOnUse" spreadMethod="reflect" id="fill4"><stop offset="0" stop-color="#71A6DB"/><stop offset="0.5" stop-color="#559BDB"/><stop offset="1" stop-color="#438AC9"/></linearGradient><linearGradient x1="1930.5" y1="812" x2="1930.5" y2="2043" gradientUnits="userSpaceOnUse" spreadMethod="reflect" id="fill5"><stop offset="0" stop-color="#71A6DB"/><stop offset="0.5" stop-color="#559BDB"/><stop offset="1" stop-color="#438AC9"/></linearGradient><linearGradient x1="2384" y1="738" x2="2384" y2="2043" gradientUnits="userSpaceOnUse" spreadMethod="reflect" id="fill6"><stop offset="0" stop-color="#71A6DB"/><stop offset="0.5" stop-color="#559BDB"/><stop offset="1" stop-color="#438AC9"/></linearGradient><linearGradient x1="2837.5" y1="1436" x2="2837.5" y2="2043" gradientUnits="userSpaceOnUse" spreadMethod="reflect" id="fill7"><stop offset="0" stop-color="#71A6DB"/><stop offset="0.5" stop-color="#559BDB"/><stop offset="1" stop-color="#438AC9"/></linearGradient><clipPath id="clip8"><rect x="923" y="613" width="2719" height="1433"/></clipPath><linearGradient x1="3290.5" y1="613" x2="3290.5" y2="2043" gradientUnits="userSpaceOnUse" spreadMethod="reflect" id="fill9"><stop offset="0" stop-color="#71A6DB"/><stop offset="0.5" stop-color="#559BDB"/><stop offset="1" stop-color="#438AC9"/></linearGradient><linearGradient x1="1150" y1="1010" x2="1150" y2="2043" gradientUnits="userSpaceOnUse" spreadMethod="reflect" id="fill10"><stop offset="0" stop-color="#F18C55"/><stop offset="0.5" stop-color="#F67B28"/><stop offset="1" stop-color="#E56B17"/></linearGradient><linearGradient x1="1603.5" y1="876" x2="1603.5" y2="2043" gradientUnits="userSpaceOnUse" spreadMethod="reflect" id="fill11"><stop offset="0" stop-color="#F18C55"/><stop offset="0.5" stop-color="#F67B28"/><stop offset="1" stop-color="#E56B17"/></linearGradient><linearGradient x1="2056.5" y1="1176" x2="2056.5" y2="2043" gradientUnits="userSpaceOnUse" spreadMethod="reflect" id="fill12"><stop offset="0" stop-color="#F18C55"/><stop offset="0.5" stop-color="#F67B28"/><stop offset="1" stop-color="#E56B17"/></linearGradient><linearGradient x1="2509.5" y1="1239" x2="2509.5" y2="2043" gradientUnits="userSpaceOnUse" spreadMethod="reflect" id="fill13"><stop offset="0" stop-color="#F18C55"/><stop offset="0.5" stop-color="#F67B28"/><stop offset="1" stop-color="#E56B17"/></linearGradient><linearGradient x1="2962.5" y1="1700" x2="2962.5" y2="2043" gradientUnits="userSpaceOnUse" spreadMethod="reflect" id="fill14"><stop offset="0" stop-color="#F18C55"/><stop offset="0.5" stop-color="#F67B28"/><stop offset="1" stop-color="#E56B17"/></linearGradient><linearGradient x1="3415.5" y1="957" x2="3415.5" y2="2043" gradientUnits="userSpaceOnUse" spreadMethod="reflect" id="fill15"><stop offset="0" stop-color="#F18C55"/><stop offset="0.5" stop-color="#F67B28"/><stop offset="1" stop-color="#E56B17"/></linearGradient><linearGradient x1="1275.5" y1="1070" x2="1275.5" y2="2043" gradientUnits="userSpaceOnUse" spreadMethod="reflect" id="fill16"><stop offset="0" stop-color="#AFAFAF"/><stop offset="0.5" stop-color="#A5A5A5"/><stop offset="1" stop-color="#929292"/></linearGradient><linearGradient x1="1728.5" y1="874" x2="1728.5" y2="2043" gradientUnits="userSpaceOnUse" spreadMethod="reflect" id="fill17"><stop offset="0" stop-color="#AFAFAF"/><stop offset="0.5" stop-color="#A5A5A5"/><stop offset="1" stop-color="#929292"/></linearGradient><linearGradient x1="2181.5" y1="1112" x2="2181.5" y2="2043" gradientUnits="userSpaceOnUse" spreadMethod="reflect" id="fill18"><stop offset="0" stop-color="#AFAFAF"/><stop offset="0.5" stop-color="#A5A5A5"/><stop offset="1" stop-color="#929292"/></linearGradient><linearGradient x1="2634.5" y1="1096" x2="2634.5" y2="2043" gradientUnits="userSpaceOnUse" spreadMethod="reflect" id="fill19"><stop offset="0" stop-color="#AFAFAF"/><stop offset="0.5" stop-color="#A5A5A5"/><stop offset="1" stop-color="#929292"/></linearGradient><linearGradient x1="3088" y1="1662" x2="3088" y2="2043" gradientUnits="userSpaceOnUse" spreadMethod="reflect" id="fill20"><stop offset="0" stop-color="#AFAFAF"/><stop offset="0.5" stop-color="#A5A5A5"/><stop offset="1" stop-color="#929292"/></linearGradient><linearGradient x1="3541.5" y1="1110" x2="3541.5" y2="2043" gradientUnits="userSpaceOnUse" spreadMethod="reflect" id="fill21"><stop offset="0" stop-color="#AFAFAF"/><stop offset="0.5" stop-color="#A5A5A5"/><stop offset="1" stop-color="#929292"/></linearGradient><clipPath id="clip22"><rect x="708" y="367" width="2934" height="1956"/></clipPath><linearGradient x1="1778" y1="2234" x2="1778" y2="2264" gradientUnits="userSpaceOnUse" spreadMethod="reflect" id="fill23"><stop offset="0" stop-color="#71A6DB"/><stop offset="0.5" stop-color="#559BDB"/><stop offset="1" stop-color="#438AC9"/></linearGradient><linearGradient x1="2152" y1="2234" x2="2152" y2="2264" gradientUnits="userSpaceOnUse" spreadMethod="reflect" id="fill24"><stop offset="0" stop-color="#F18C55"/><stop offset="0.5" stop-color="#F67B28"/><stop offset="1" stop-color="#E56B17"/></linearGradient><linearGradient x1="2471" y1="2234" x2="2471" y2="2264" gradientUnits="userSpaceOnUse" spreadMethod="reflect" id="fill25"><stop offset="0" stop-color="#AFAFAF"/><stop offset="0.5" stop-color="#A5A5A5"/><stop offset="1" stop-color="#929292"/></linearGradient></defs><g clip-path="url(#clip0)" transform="translate(-709 -367)"><g clip-path="url(#clip1)"><path d="M923.5 1899.56 3642.5 1899.56M923.5 1756.56 3642.5 1756.56M923.5 1613.55 3642.5 1613.55M923.5 1470.55 3642.5 1470.55M923.5 1327.54 3642.5 1327.54M923.5 1184.54 3642.5 1184.54M923.5 1041.53 3642.5 1041.53M923.5 899.53 3642.5 899.53M923.5 756.525 3642.5 756.525M923.5 613.5 3642.5 613.5" stroke="#E0E5EB" stroke-width="3.4375" stroke-linejoin="round" stroke-miterlimit="10" fill="none"/></g><g><rect x="974" y="1733" width="101" height="310" fill="url(#fill2)"/></g><g clip-path="url(#clip3)"><rect x="1427" y="613" width="101" height="1430" fill="url(#fill4)"/></g><g><rect x="1880" y="812" width="101" height="1231" fill="url(#fill5)"/></g><g><rect x="2333" y="738" width="102" height="1305" fill="url(#fill6)"/></g><g><rect x="2787" y="1436" width="101" height="607" fill="url(#fill7)"/></g><g clip-path="url(#clip8)"><rect x="3240" y="613" width="101" height="1430" fill="url(#fill9)"/></g><g><rect x="1099" y="1010" width="102" height="1033" fill="url(#fill10)"/></g><g><rect x="1553" y="876" width="101" height="1167" fill="url(#fill11)"/></g><g><rect x="2006" y="1176" width="101" height="867" fill="url(#fill12)"/></g><g><rect x="2459" y="1239" width="101" height="804" fill="url(#fill13)"/></g><g><rect x="2912" y="1700" width="101" height="343" fill="url(#fill14)"/></g><g><rect x="3365" y="957" width="101" height="1086" fill="url(#fill15)"/></g><g><rect x="1225" y="1070" width="101" height="973" fill="url(#fill16)"/></g><g><rect x="1678" y="874" width="101" height="1169" fill="url(#fill17)"/></g><g><rect x="2131" y="1112" width="101" height="931" fill="url(#fill18)"/></g><g><rect x="2584" y="1096" width="101" height="947" fill="url(#fill19)"/></g><g><rect x="3037" y="1662" width="102" height="381" fill="url(#fill20)"/></g><g><rect x="3491" y="1110" width="101" height="933" fill="url(#fill21)"/></g><g clip-path="url(#clip22)"><path d="M923.5 2042.5 3642.5 2042.5" stroke="#E0E5EB" stroke-width="3.4375" stroke-linejoin="round" stroke-miterlimit="10" fill="none" fill-rule="evenodd"/></g><g><text fill="#44546A" font-family="Calibri,Calibri_MSFontService,sans-serif" font-weight="400" font-size="55" transform="matrix(1 0 0 1 962.113 1697)">21.69</text></g><g><text fill="#44546A" font-family="Calibri,Calibri_MSFontService,sans-serif" font-weight="400" font-size="55" transform="matrix(1 0 0 1 1436.07 578)">100</text></g><g><text fill="#44546A" font-family="Calibri,Calibri_MSFontService,sans-serif" font-weight="400" font-size="55" transform="matrix(1 0 0 1 1868.39 776)">86.09</text></g><g><text fill="#44546A" font-family="Calibri,Calibri_MSFontService,sans-serif" font-weight="400" font-size="55" transform="matrix(1 0 0 1 2321.53 702)">91.28</text></g><g><text fill="#44546A" font-family="Calibri,Calibri_MSFontService,sans-serif" font-weight="400" font-size="55" transform="matrix(1 0 0 1 2774.67 1400)">42.47</text></g><g><text fill="#44546A" font-family="Calibri,Calibri_MSFontService,sans-serif" font-weight="400" font-size="55" transform="matrix(1 0 0 1 3248.63 578)">100</text></g><g><text fill="#44546A" font-family="Calibri,Calibri_MSFontService,sans-serif" font-weight="400" font-size="55" transform="matrix(1 0 0 1 1087.54 974)">72.25</text></g><g><text fill="#44546A" font-family="Calibri,Calibri_MSFontService,sans-serif" font-weight="400" font-size="55" transform="matrix(1 0 0 1 1540.68 840)">81.64</text></g><g><text fill="#44546A" font-family="Calibri,Calibri_MSFontService,sans-serif" font-weight="400" font-size="55" transform="matrix(1 0 0 1 1993.82 1140)">60.66</text></g><g><text fill="#44546A" font-family="Calibri,Calibri_MSFontService,sans-serif" font-weight="400" font-size="55" transform="matrix(1 0 0 1 2446.96 1203)">56.24</text></g><g><text fill="#44546A" font-family="Calibri,Calibri_MSFontService,sans-serif" font-weight="400" font-size="55" transform="matrix(1 0 0 1 2900.1 1664)">23.97</text></g><g><text fill="#44546A" font-family="Calibri,Calibri_MSFontService,sans-serif" font-weight="400" font-size="55" transform="matrix(1 0 0 1 3353.24 921)">75.96</text></g><g><text fill="#44546A" font-family="Calibri,Calibri_MSFontService,sans-serif" font-weight="400" font-size="55" transform="matrix(1 0 0 1 1212.96 1035)">68.03</text></g><g><text fill="#44546A" font-family="Calibri,Calibri_MSFontService,sans-serif" font-weight="400" font-size="55" transform="matrix(1 0 0 1 1666.1 838)">81.76</text></g><g><text fill="#44546A" font-family="Calibri,Calibri_MSFontService,sans-serif" font-weight="400" font-size="55" transform="matrix(1 0 0 1 2119.24 1076)">65.11</text></g><g><text fill="#44546A" font-family="Calibri,Calibri_MSFontService,sans-serif" font-weight="400" font-size="55" transform="matrix(1 0 0 1 2572.38 1060)">66.24</text></g><g><text fill="#44546A" font-family="Calibri,Calibri_MSFontService,sans-serif" font-weight="400" font-size="55" transform="matrix(1 0 0 1 3025.52 1626)">26.65</text></g><g><text fill="#44546A" font-family="Calibri,Calibri_MSFontService,sans-serif" font-weight="400" font-size="55" transform="matrix(1 0 0 1 3478.66 1074)">65.25</text></g><g><text fill="#44546A" font-family="Calibri,Calibri_MSFontService,sans-serif" font-weight="400" font-size="55" transform="matrix(1 0 0 1 844.794 2058)">0</text></g><g><text fill="#44546A" font-family="Calibri,Calibri_MSFontService,sans-serif" font-weight="400" font-size="55" transform="matrix(1 0 0 1 816.996 1915)">10</text></g><g><text fill="#44546A" font-family="Calibri,Calibri_MSFontService,sans-serif" font-weight="400" font-size="55" transform="matrix(1 0 0 1 816.996 1772)">20</text></g><g><text fill="#44546A" font-family="Calibri,Calibri_MSFontService,sans-serif" font-weight="400" font-size="55" transform="matrix(1 0 0 1 816.996 1629)">30</text></g><g><text fill="#44546A" font-family="Calibri,Calibri_MSFontService,sans-serif" font-weight="400" font-size="55" transform="matrix(1 0 0 1 816.996 1486)">40</text></g><g><text fill="#44546A" font-family="Calibri,Calibri_MSFontService,sans-serif" font-weight="400" font-size="55" transform="matrix(1 0 0 1 816.996 1343)">50</text></g><g><text fill="#44546A" font-family="Calibri,Calibri_MSFontService,sans-serif" font-weight="400" font-size="55" transform="matrix(1 0 0 1 816.996 1200)">60</text></g><g><text fill="#44546A" font-family="Calibri,Calibri_MSFontService,sans-serif" font-weight="400" font-size="55" transform="matrix(1 0 0 1 816.996 1057)">70</text></g><g><text fill="#44546A" font-family="Calibri,Calibri_MSFontService,sans-serif" font-weight="400" font-size="55" transform="matrix(1 0 0 1 816.996 915)">80</text></g><g><text fill="#44546A" font-family="Calibri,Calibri_MSFontService,sans-serif" font-weight="400" font-size="55" transform="matrix(1 0 0 1 816.996 772)">90</text></g><g><text fill="#44546A" font-family="Calibri,Calibri_MSFontService,sans-serif" font-weight="400" font-size="55" transform="matrix(1 0 0 1 789.198 629)">100</text></g><g><text fill="#44546A" font-family="Microsoft JhengHei,Microsoft JhengHei_MSFontService,sans-serif" font-weight="400" font-size="55" transform="matrix(1 0 0 1 1061.19 2148)">结点</text></g><g><text fill="#44546A" font-family="Calibri,Calibri_MSFontService,sans-serif" font-weight="400" font-size="55" transform="matrix(1 0 0 1 1183.32 2148)">10</text></g><g><text fill="#44546A" font-family="Microsoft JhengHei,Microsoft JhengHei_MSFontService,sans-serif" font-weight="400" font-size="55" transform="matrix(1 0 0 1 1514.33 2148)">结点</text></g><g><text fill="#44546A" font-family="Calibri,Calibri_MSFontService,sans-serif" font-weight="400" font-size="55" transform="matrix(1 0 0 1 1636.46 2148)">19</text></g><g><text fill="#44546A" font-family="Microsoft JhengHei,Microsoft JhengHei_MSFontService,sans-serif" font-weight="400" font-size="55" transform="matrix(1 0 0 1 1967.47 2148)">结点</text></g><g><text fill="#44546A" font-family="Calibri,Calibri_MSFontService,sans-serif" font-weight="400" font-size="55" transform="matrix(1 0 0 1 2089.6 2148)">62</text></g><g><text fill="#44546A" font-family="Microsoft JhengHei,Microsoft JhengHei_MSFontService,sans-serif" font-weight="400" font-size="55" transform="matrix(1 0 0 1 2420.61 2148)">结点</text></g><g><text fill="#44546A" font-family="Calibri,Calibri_MSFontService,sans-serif" font-weight="400" font-size="55" transform="matrix(1 0 0 1 2542.74 2148)">71</text></g><g><text fill="#44546A" font-family="Microsoft JhengHei,Microsoft JhengHei_MSFontService,sans-serif" font-weight="400" font-size="55" transform="matrix(1 0 0 1 2873.75 2148)">结点</text></g><g><text fill="#44546A" font-family="Calibri,Calibri_MSFontService,sans-serif" font-weight="400" font-size="55" transform="matrix(1 0 0 1 2995.88 2148)">86</text></g><g><text fill="#44546A" font-family="Microsoft JhengHei,Microsoft JhengHei_MSFontService,sans-serif" font-weight="400" font-size="55" transform="matrix(1 0 0 1 3312.99 2148)">结点</text></g><g><text fill="#44546A" font-family="Calibri,Calibri_MSFontService,sans-serif" font-weight="400" font-size="55" transform="matrix(1 0 0 1 3435.12 2148)">233</text></g><g><text fill="#44546A" font-family="Microsoft JhengHei,Microsoft JhengHei_MSFontService,sans-serif" font-weight="700" font-size="98" transform="matrix(1 0 0 1 1639.22 526)">对于正确结点的预测概率</text></g><g><rect x="1763" y="2234" width="29.9999" height="30" fill="url(#fill23)"/></g><g><text fill="#44546A" font-family="MS Gothic,MS Gothic_MSFontService,sans-serif" font-weight="400" font-size="55" transform="matrix(1 0 0 1 1806.28 2269)">未</text></g><g><text fill="#44546A" font-family="Microsoft JhengHei,Microsoft JhengHei_MSFontService,sans-serif" font-weight="400" font-size="55" transform="matrix(1 0 0 1 1861.15 2269)">拟合子图</text></g><g><rect x="2137" y="2234" width="30" height="30" fill="url(#fill24)"/></g><g><text fill="#44546A" font-family="Microsoft JhengHei,Microsoft JhengHei_MSFontService,sans-serif" font-weight="400" font-size="55" transform="matrix(1 0 0 1 2180.08 2269)">拟合子图</text></g><g><rect x="2456" y="2234" width="30" height="30" fill="url(#fill25)"/></g><g><text fill="#44546A" font-family="MS Gothic,MS Gothic_MSFontService,sans-serif" font-weight="400" font-size="55" transform="matrix(1 0 0 1 2499.01 2269)">大</text></g><g><text fill="#44546A" font-family="Microsoft JhengHei,Microsoft JhengHei_MSFontService,sans-serif" font-weight="400" font-size="55" transform="matrix(1 0 0 1 2553.87 2269)">图</text></g></g></svg>